<svg xmlns="http://www.w3.org/2000/svg" width="256" height="256"><path fill-opacity=".016" d="M0 128.004v128.004l128.25-.254 128.25-.254.254-127.75L257.008 0H0v128.004m.485.496c0 70.4.119 99.053.265 63.672.146-35.38.146-92.98 0-128C.604 29.153.485 58.1.485 128.5" fill="#212121" fill-rule="evenodd"/><path fill-opacity=".183" d="M108.5 1.469C67.907 7.92 32.763 33.344 14.285 69.625 4.284 89.261.522 105.354.522 128.5c0 22.097 3.529 37.609 12.74 55.992 8.134 16.236 22.543 33.942 36.186 44.468 24.888 19.201 59.338 29.164 90.042 26.041 32.71-3.327 56.947-15.041 80.51-38.91 18.073-18.308 28.786-38.326 33.23-62.091 1.08-5.775 2.37-11.882 2.867-13.571 1.177-4.003 1.166-21.91-.017-25.858-.506-1.689-1.892-7.796-3.081-13.571C240.926 42.363 187.485-.431 127 .105c-5.775.051-14.1.665-18.5 1.364m54.148 109.67c-2.35 1.937-3.644 3.767-3.38 4.78.555 2.12-1.905 4.409-4.116 3.831-1.56-.408-1.634.124-.795 5.734.886 5.927 1.042 6.183 3.796 6.183 1.913 0 4.157-1.197 6.718-3.584 2.116-1.971 4.698-4.097 5.738-4.724 1.103-.666 1.786-2.051 1.64-3.323-.272-2.364-2.827-5.482-3.505-4.277-.229.408-.277.174-.107-.52.425-1.738-.74-7.239-1.534-7.239-.356 0-2.361 1.413-4.455 3.139M.382 128.5c.002 6.6.164 9.17.359 5.711.196-3.459.195-8.859-.003-12S.38 121.9.382 128.5m160.156 11.75c.427 1.731.276 2.75-.409 2.75-1.355 0-7.107 9.878-7.12 12.226-.005.949.889 3.199 1.987 5 1.098 1.801 1.998 4.08 2 5.066.005 2.458 2.95 5.407 6.218 6.226 1.493.375 2.964 1.468 3.269 2.43.306.962 1.672 2.257 3.036 2.879 1.365.621 2.481 1.59 2.481 2.152 0 .594 3.241 1.085 7.75 1.173l7.75.153-6.168.597c-3.392.329-6.505.936-6.916 1.348-.412.412-.198.75.476.75.674 0 .948.45.608 1-.34.55-.141 1 .441 1s1.12 1.238 1.195 2.75c.123 2.486.179 2.525.581.412.38-1.993.839-2.232 3.114-1.618 4.708 1.269 10.603 2.368 12.947 2.412 2.039.039 2.238-.349 1.897-3.706-.342-3.371-.724-3.812-3.778-4.368-2.797-.51-2.941-.642-.814-.75 3.561-.182 3.856-.722 2.608-4.789-1.245-4.055-5.2-7.408-11.691-9.912-2.475-.954-5.574-2.679-6.887-3.833-1.689-1.484-2.518-1.732-2.834-.848-.72 2.02-2.614 1.349-5.111-1.812-1.591-2.014-2.741-5.513-3.623-11.018-.71-4.436-1.83-8.596-2.489-9.243-.927-.911-1.044-.556-.518 1.573M195 139c0 .55.477 1 1.059 1s.781-.45.441-1-.816-1-1.059-1-.441.45-.441 1m-160.731 2.693c.973.254 2.323.237 3-.037.677-.274-.119-.481-1.769-.461-1.65.02-2.204.244-1.231.498m-10.456.99c.721.289 1.584.253 1.916-.079.332-.332-.258-.568-1.312-.525-1.165.048-1.402.285-.604.604m166.854 7.984c-1.215 1.214-.691 2.28.833 1.695.825-.317 1.5-.978 1.5-1.469 0-1.048-1.378-1.182-2.333-.226M163 165.5c0 1.684-.571 2.526-1.75 2.579-1.394.063-1.445.195-.25.65.825.314 1.831 1.066 2.235 1.671.404.605.741-.812.75-3.15.008-2.338-.21-4.25-.485-4.25s-.5 1.125-.5 2.5m12.158 26.5c0 1.375.227 1.938.504 1.25.278-.687.278-1.812 0-2.5-.277-.687-.504-.125-.504 1.25" fill="#212121" fill-rule="evenodd"/><path fill-opacity=".551" d="M112.5 1.44C82.865 5.226 58.577 17.195 37.462 38.416 23.446 52.503 12.177 70.729 7.053 87.599 3.888 98.021.937 115.343 2.195 116.121c.696.43.7.758.012 1.008-.561.204-1.333 2.914-1.716 6.021-.822 6.67-2.612 5.713 17.509 9.358 16.225 2.939 22.43 4.395 21.727 5.099-.262.261-8.212-1.118-17.667-3.066C12.604 132.593 3.767 131 2.422 131c-2.313 0-2.41.231-1.795 4.25.358 2.338.784 4.408.946 4.6.162.193 10.296.572 22.521.842 12.225.27 23.167.89 24.316 1.377 1.378.584-1.032.809-7.068.659-5.037-.126-8.947.11-8.691.522.257.412 1.19.75 2.075.75.884 0 1.369.238 1.078.529-.291.291-4.475-.159-9.297-1C15.5 141.61.65 141.446 1.247 143.25c.285.859 4.456 1.488 13.334 2.012 7.105.42 15.619 1.189 18.919 1.711l6 .948-7-.465C5.382 145.658 2 145.642 2 147.308c0 3.043 3.924 18.444 6.324 24.819 4.953 13.158 17.415 34.192 20.439 34.498.681.069 1.35.216 1.487.327.137.11 1.11.362 2.161.56 1.051.197 2.929 1.625 4.175 3.173 1.819 2.261 2.516 2.569 3.539 1.565 1.874-1.837 4.222-1.525 5.643.75 1.018 1.63 2.187 1.959 6.33 1.778 4.256-.185 5.396-.663 7.018-2.94 1.065-1.496 2.937-3.038 4.16-3.427 2.156-.685 2.163-.73.224-1.449-1.82-.675-1.731-.847.98-1.914 1.638-.645 3.229-1.578 3.535-2.072.305-.494 2.287-1.622 4.404-2.506 3.602-1.506 3.806-1.499 3.192.102-.556 1.448-.419 1.514.89.427.851-.706 1.83-1.001 2.177-.655.346.346 2.135-.301 3.975-1.439 3.576-2.21 3.989-1.974 2.247 1.281-.842 1.574-.816 1.88.112 1.307.666-.412 1.555-.194 1.975.486.543.878.96.915 1.447.128.376-.609.207-1.107-.375-1.107-1.615 0-1.262-1.708.493-2.382.854-.327 1.306-.197 1.005.29-.301.487.15 2.394 1.003 4.239.898 1.944 1.356 2.408 1.089 1.104-.254-1.237-.053-2.501.445-2.809.498-.308.906.19.906 1.106 0 1.07.537 1.46 1.5 1.09.825-.316 1.5-.139 1.5.393 0 1.491 2.678 1.149 4.386-.56.841-.841 1.281-2.303.977-3.25-.468-1.461-.388-1.494.527-.221.915 1.272 1.092 1.196 1.165-.5l.086-2 .859 2c1.281 2.981 1.167 3.501-.616 2.817-1.377-.528-1.446-.301-.465 1.531 1.367 2.555 1.754 2.622 3.724.652 3.451-3.452 7.738-1.257 10.329 5.288 2.216 5.596 7.212 6.992 8.793 2.457 1.341-3.847.413-9.527-1.439-8.817-.787.302-1.174.135-.862-.37.313-.506.111-1.202-.448-1.548-.559-.345-1.016-1.553-1.016-2.684 0-1.97.106-1.986 2.53-.398 2.512 1.646 2.525 1.639 1.864-.993-.444-1.769-.204-2.941.721-3.527 2.16-1.368 2.885-1.079 2.885 1.151 0 1.132-.45 1.781-1 1.441-2.132-1.318-.74 1.198 3.042 5.5l3.958 4.5 7.597-.225c5.034-.149 8.533.258 10.367 1.206 2.111 1.092 3.63 1.194 6.402.428 1.999-.551 3.634-1.097 3.634-1.213 0-.115-.434-1.722-.964-3.571-.715-2.493-.586-4.266.5-6.865 2.118-5.069 1.878-8.171-.707-9.128-1.438-.532-1.776-1.047-1-1.526.644-.398 1.171-1.875 1.171-3.282 0-2.05-.39-2.455-1.966-2.043-1.22.319-2.833-.34-4.25-1.736-1.256-1.238-3.409-2.797-4.784-3.465l-2.5-1.214 2.295 1.855c2.931 2.37 1.882 3.511-1.578 1.717-1.838-.954-2.843-1.042-3.308-.291-.476.77-.773.768-1.038-.008-.204-.599-1.352-.83-2.552-.515-1.45.381-1.983 1.088-1.59 2.111.394 1.027.121 1.382-.82 1.068-.775-.258-1.409-1.075-1.409-1.814 0-.74-1.266-1.684-2.814-2.098-5.049-1.35-7.718-4.891-3.686-4.891 1.122 0 2-.667 2-1.519 0-1.123.655-1.355 2.511-.889 2.033.51 2.394.323 1.893-.981-.471-1.227.003-1.611 1.989-1.611 1.651 0 2.607-.55 2.607-1.5 0-.825.653-1.5 1.45-1.5 2.492 0 3.622-3.263 1.821-5.253-1.38-1.525-1.425-2.48-.347-7.3 1.072-4.787 1.025-5.876-.341-7.961-.871-1.329-1.583-3.276-1.583-4.328 0-1.052-.704-2.497-1.564-3.211-.975-.809-1.35-2.152-.997-3.562.313-1.244.109-2.546-.452-2.893a1.196 1.196 0 01-.397-1.638c.378-.611-.5-.879-2.234-.681-2.154.247-2.941.929-3.202 2.776l-.345 2.449-1.99-2.449-1.989-2.449.535 2.5c.511 2.384.468 2.41-.915.559-.797-1.068-1.067-2.193-.6-2.5 1.44-.946 3.284-5.059 2.269-5.059-.524 0-1.181.562-1.46 1.25-.714 1.761-2.653-1.103-1.963-2.901.281-.733-.224-1.614-1.122-1.959-1.015-.389-1.42-1.299-1.071-2.399.419-1.321-.232-2.049-2.551-2.858-4.996-1.742-14.166-.263-21.616 3.485-3.638 1.83-6.934 3.131-7.324 2.889-.391-.241-1.285.635-1.988 1.948-1.105 2.065-1.598 2.241-3.655 1.303-1.308-.595-2.646-.815-2.973-.487-1.118 1.117.716 2.729 3.104 2.729 1.31 0 2.707.526 3.105 1.17.498.805.16.954-1.082.477-1.374-.527-1.563-.388-.79.58.559.7.85 2.285.648 3.523-.203 1.238.079 2.25.625 2.25.547 0 .994.466.994 1.035 0 .665-.804.607-2.25-.164-1.951-1.039-2.087-1.001-1.024.289.94 1.14.952 1.762.05 2.664-1.375 1.375-3.149 1.588-2.341.281.305-.493-.111-1.151-.924-1.462-.839-.322-1.222-1.232-.887-2.105.434-1.131-.071-1.538-1.91-1.538-1.375 0-2.759-.675-3.076-1.5-.757-1.974-2.638-1.93-2.638.061 0 1.294-.815 1.442-4.75.866-2.612-.383-5.944-1.535-7.404-2.561s-3.17-1.866-3.8-1.866c-.63 0-2.473-.687-4.096-1.526-3.104-1.605-4.023-.609-1.426 1.546 2.665 2.212.698 2.3-2.106.094-1.652-1.299-4.134-2.114-6.442-2.114-2.182 0-4.553-.733-5.662-1.75-1.05-.963-1.368-1.393-.707-.957.661.436 2.38.497 3.821.136l2.62-.658-4.345-5.135c-6.4-7.566-6.72-8.976-.563-2.484 5.005 5.278 5.666 5.653 9.981 5.658 2.542.003 6.007.722 7.701 1.598 1.693.875 3.729 1.592 4.523 1.592.795 0 2.505 1.117 3.8 2.483C72.766 128.246 77 128.874 77 126.5c0-.825.45-1.5 1-1.5 1.603 0 1.154-2.163-.75-3.608-2.131-1.617-3.612-1.787-2.699-.309.368.595-.708.37-2.391-.5-3.68-1.903-6.148-2.036-6.193-.333-.019.688-.878.237-1.911-1-1.032-1.238-2.381-2.25-2.998-2.25-.616 0-1.386-.787-1.71-1.75-1.8-5.348-4.685-10.322-5.357-9.236-.531.86-.935.886-1.425.093-.376-.609-.363-1.627.029-2.262.408-.658.278-.885-.301-.527-1.595.986-8.478-6.391-7.294-7.818.54-.651.649-1.578.241-2.059-.407-.481.125-.215 1.182.592 1.781 1.358 1.881 1.3 1.344-.783-.718-2.788.334-2.92 2.001-.25 1.606 2.572 4.27 2.572 4.942 0 .565-2.16 1.8-2.603 2.79-1 .34.55 1.12 1 1.733 1 .614 0 .183-1.013-.956-2.25s-2.062-3.473-2.049-4.968c.019-2.311.293-2.573 1.831-1.75.995.532 2.627.958 3.625.946 1.537-.019 1.432-.336-.684-2.063l-2.5-2.04 2.5.666c3.835 1.023 6.689 3.125 8.571 6.311 3.233 5.472 16.112 11.958 29.803 15.009 6.703 1.493 9.527 1.721 11.75.946 1.609-.561 4.602-.814 6.651-.562 6.698.824 17.225-3.874 17.225-7.687 0-.602 1.06-2.661 2.357-4.576 1.296-1.915 2.646-4.945 3-6.732.353-1.787.923-4.713 1.265-6.5.342-1.787 1.243-3.962 2.002-4.831.759-.87 1.1-1.861.758-2.204-1.145-1.145.52-5.2 2.686-6.539 2.376-1.469 2.054-.336-.875 3.074-.839.976-1.029 1.75-.431 1.75.589 0 2.047-1.237 3.241-2.75l2.169-2.75-2.081 3.61-2.082 3.611 2.436-.466c1.339-.256 3.207-1.318 4.15-2.36.943-1.042 2.296-1.895 3.007-1.895.711 0 3.408-1.125 5.993-2.5 3.174-1.687 5.082-2.183 5.872-1.527.644.534 2.94.827 5.102.651C177.689 62.287 183 63.626 183 65c0 .442 1.688 1.677 3.75 2.744 2.216 1.147 3.878 2.8 4.062 4.043.202 1.355.824 1.906 1.75 1.551.791-.304 1.438-.268 1.438.08 0 .347-1.125 1.059-2.5 1.582-2.978 1.132-3.438 3.432-.5 2.5 1.1-.349 2-.185 2 .365s.987 1.314 2.194 1.697c2.778.881 5.732 4.469 5.079 6.168-.273.713.009 1.905.627 2.65.85 1.024.755 1.661-.388 2.61-2.056 1.707-1.899 2.752.53 3.523 1.445.459 1.867 1.199 1.443 2.534-.454 1.432.018 2.041 1.958 2.528 1.406.353 2.557 1.288 2.557 2.077 0 .79.563 1.363 1.25 1.273 2.549-.331 3.85.104 3.245 1.083-.343.555.418 1.409 1.691 1.897l2.314.889-2.852 1.117c-1.833.718-2.656 1.626-2.304 2.544.392 1.02-.362 1.514-2.648 1.736-1.804.174-3.096.827-2.966 1.498.126.654-.634 1.463-1.689 1.798-1.098.349-2.051 1.707-2.229 3.18-.299 2.464-.606 2.581-7.312 2.786-15.189.464-30.156 8.665-28.796 15.779.302 1.579 4.739 6.957 11.149 13.51 9.034 9.236 11.821 11.441 18.397 14.554 10.029 4.747 10.123 5.879.25 3.032-1.939-.559-1.935-.504.125 1.798 2.631 2.939 5.041 7.404 3.475 6.436-.605-.374-1.1-.293-1.1.179 0 1.483 2.322 3.259 4.259 3.259 1.022 0 1.625.379 1.339.842-.286.462 1.037 2.351 2.941 4.196 1.904 1.845 3.461 3.886 3.461 4.536 0 .649.675 1.741 1.5 2.426s1.532 2.202 1.57 3.372c.062 1.861.159 1.904.775.344.662-1.675.84-1.658 2.918.278 1.217 1.134 3.231 2.507 4.475 3.052 1.832.802 1.55.883-1.488.427-2.062-.31-3.75-.351-3.75-.092 0 .26 2.513 1.91 5.585 3.667 4.594 2.629 5.492 3.573 5.062 5.324-.868 3.532 6.298-5.37 12.12-15.055C247.199 177.625 255 153.014 255 138.951c0-2.658.405-5.084.901-5.39 2.86-1.767-1.79-31.262-7.556-47.928-14.871-42.986-52.482-75.016-97.471-83.01C138.6.442 123.865-.012 112.5 1.44m7.515 46.251c-.008 1.755.435 3.469.985 3.809 1.282.792 1.282-3.517 0-5.5-.738-1.141-.973-.737-.985 1.691m21.735 9.389c-2.333 1.359-2.49 7.418-.168 6.527.87-.334 2.025-.607 2.567-.607.542 0 .7-.9.351-2-.364-1.147-.18-2 .433-2 .587 0 1.067-.675 1.067-1.5 0-1.724-1.719-1.894-4.25-.42m19.25.979c0 .582.45.781 1 .441s1-.816 1-1.059-.45-.441-1-.441-1 .477-1 1.059m46.459 38.008c-.363.586-.423 1.302-.134 1.591.785.785 4.675-.65 4.675-1.725 0-1.288-3.731-1.178-4.541.134M54.727 113.064c.275 1.052.899 1.667 1.387 1.366 1.316-.814 1.074-2.144-.501-2.748-.971-.373-1.237.042-.886 1.382m8.086-1.381c.721.289 1.584.253 1.916-.079.332-.332-.258-.568-1.312-.525-1.165.048-1.402.285-.604.604M130 116c-1.282.828-1.246.972.25.985.963.008 1.75-.435 1.75-.985 0-1.22-.113-1.22-2 0M5.813 117.683c.721.289 1.584.253 1.916-.079.332-.332-.258-.568-1.312-.525-1.165.048-1.402.285-.604.604m13.691 4.17c2.202 1.021 5.127 2.147 6.5 2.503 1.373.356.694-.188-1.508-1.209-2.202-1.021-5.127-2.147-6.5-2.503-1.373-.356-.694.188 1.508 1.209M125.5 122c-.34.55-.141 1 .441 1s1.059-.45 1.059-1-.198-1-.441-1-.719.45-1.059 1M.232 126c0 1.925.206 2.713.457 1.75.252-.963.252-2.537 0-3.5-.251-.963-.457-.175-.457 1.75m133.847-.417c.048 1.165.285 1.402.604.605.289-.722.253-1.585-.079-1.917-.332-.332-.568.258-.525 1.312m-94.005 3.513l-2.425.97 2.123 1.487c1.167.818 3.387 1.39 4.933 1.273 1.545-.118 4.338.548 6.206 1.48 3.681 1.836 6.117 2.274 4.539.816-1.035-.957-12.152-7.162-12.646-7.059-.167.035-1.396.5-2.73 1.033M.079 132.583c.048 1.165.285 1.402.604.605.289-.722.253-1.585-.079-1.917-.332-.332-.568.258-.525 1.312m194.397 5.456c-1.008 1.63 1.231 3.654 2.566 2.319.724-.724.598-1.412-.411-2.249-1.074-.891-1.636-.91-2.155-.07m-172.663 1.644c.721.289 1.584.253 1.916-.079.332-.332-.258-.568-1.312-.525-1.165.048-1.402.285-.604.604m168.363 10.541c-1.727 1.727-1.437 2.776.765 2.776 2.511 0 3.398-1.474 1.724-2.863-.952-.79-1.635-.767-2.489.087M29.75 151.732c2.337.211 6.162.211 8.5 0 2.337-.21.425-.383-4.25-.383s-6.588.173-4.25.383m-12 .93c.688.278 1.813.278 2.5 0 .688-.277.125-.504-1.25-.504s-1.937.227-1.25.504m-4.937 1.021c.721.289 1.584.253 1.916-.079.332-.332-.258-.568-1.312-.525-1.165.048-1.402.285-.604.604m180.202 2.067c-.008 1.238.435 2.25.985 2.25 1.253 0 1.253-1.061 0-3-.784-1.213-.972-1.069-.985.75m15.468 9.785c-1.659.819-3.544 2.333-4.188 3.364-1.027 1.646-.816 1.947 1.724 2.455 2.295.459 3.482-.009 5.731-2.258 4.501-4.501 2.673-6.494-3.267-3.561M142.5 173c.34.55 1.068 1 1.618 1s.722-.45.382-1c-.34-.55-1.068-1-1.618-1s-.722.45-.382 1m-16.485 1.75c.009.963.452 2.425.985 3.25.815 1.262.972 1.202.985-.372.013-1.634.232-1.698 1.718-.5 1.342 1.081 1.289.795-.25-1.347-2.265-3.152-3.459-3.511-3.438-1.031M67.75 191.662c.688.278 1.813.278 2.5 0 .688-.277.125-.504-1.25-.504s-1.937.227-1.25.504m14.917 3.005c-.367.366-.667 1.131-.667 1.7 0 .626.466.567 1.183-.15.651-.651.951-1.416.667-1.7-.284-.285-.817-.217-1.183.15M79 199.059c0 .582.45.781 1 .441s1-.816 1-1.059-.45-.441-1-.441-1 .477-1 1.059m48.015 5.132c-.008 1.48.435 2.969.985 3.309 1.277.789 1.277-2.524 0-4.5-.758-1.173-.973-.914-.985 1.191m-39.29 1.082c-.297.775-.194 1.968.228 2.652.567.917.945.783 1.441-.508.369-.963.267-2.156-.228-2.651-.534-.534-1.121-.327-1.441.507" fill="#212121" fill-rule="evenodd"/><path fill-opacity=".305" d="M114.513 1.979c-.333.539-.119 1.889.476 3 1.568 2.93-.445 2.528-2.886-.576l-2.043-2.596-8.045 1.63C70.03 9.918 40.6 29.738 22.427 57.036 15.457 67.506 7.513 84.289 8.415 86.64c.287.748 1.647 1.36 3.022 1.36 1.812 0 2.342-.413 1.925-1.5-.4-1.041.069-1.5 1.531-1.5 1.159 0 2.107-.398 2.107-.885s1.163-1.647 2.585-2.578c2.429-1.592 2.697-1.592 4.462.006C25.91 83.228 29 82.951 29 81.099c0-.53.933-1.26 2.072-1.622 1.256-.399 1.858-1.218 1.527-2.08-.523-1.362 1.393-1.313 6.16.159.693.214.275-.944-.929-2.571-2.691-3.641-1.669-5.122 1.488-2.156 2.923 2.746 3.589 2.73 3.437-.079-.067-1.237.006-3.6.161-5.25.282-2.981.288-2.984 1.084-.5.44 1.375.845 4.165.9 6.199.076 2.808.883 4.434 3.35 6.746 4.049 3.794 4.513 3.801 3.963.055-.242-1.65-1.048-3-1.791-3-.744 0-1.817-.87-2.387-1.934-1.391-2.6-1.305-3.107.416-2.446 1.156.443 1.338-.148.89-2.905-.711-4.381 1.036-5.596 3.23-2.247 1.912 2.918 4.734 3.512 3.71.782-.583-1.556-.461-1.592 1.096-.324 1.125.915 1.553 2.216 1.197 3.636-.405 1.613-.041 2.344 1.349 2.708 1.324.346 2.068-.127 2.44-1.551.474-1.811.737-1.884 2.274-.633 1.547 1.259 1.662 1.214 1.054-.409-.52-1.385-.265-1.736 1.063-1.464 1.458.3 1.702 1.314 1.479 6.157-.358 7.79 2.325 12.501 10.058 17.666 5.712 3.814 9.262 5.132 22.865 8.492 8.06 1.99 8.99 1.609 14.77-6.046 3.431-4.544 4.748-5.582 6.907-5.443 4.395.285 5.557-.014 8.011-2.058 2.392-1.993 6.107-11.687 3.974-10.369-.745.461-.942-.182-.602-1.963.279-1.457.108-2.649-.379-2.649-.488 0-1.332-1.172-1.877-2.605-.974-2.562-1.034-2.577-3.63-.876-2.356 1.544-2.573 1.556-2.016.105.343-.893.187-1.624-.345-1.624-.533 0-.969-1.5-.969-3.333 0-2.82.34-3.308 2.208-3.17 3.01.222 6.916-4.647 7.443-9.277.398-3.495.33-3.603-1.114-1.779-.861 1.088-1.537 1.392-1.537.691 0-.687-.45-.972-1-.632-.55.34-1-.084-1-.941S129.55 49 129 49s-1 .638-1 1.417-.354 1.566-.786 1.75c-.432.183-1.779 1.748-2.993 3.477-2.204 3.141-2.258 3.589-2.295 19.175-.006 2.935-.397 4.187-1.218 3.905-1.35-.463-1.455-4.33-.272-9.974.536-2.555.433-3.75-.325-3.75-.611 0-1.147.787-1.19 1.75-.05 1.103-.45.733-1.083-1-1.432-3.92-2.817-3.399-2.558.961.317 5.355-1.97 5.272-8.164-.297-4.735-4.257-8.907-10.956-7.623-12.241.286-.285 1.837.957 3.448 2.76 2.506 2.808 2.842 2.954 2.336 1.017-.354-1.353-.199-2.02.385-1.659.583.361.802-.582.544-2.344-.49-3.332.421-3.777 2.449-1.197 1.251 1.591 1.325 1.523.82-.75-.468-2.104.084-2.894 3.485-4.986 2.222-1.367 4.04-2.856 4.04-3.309 0-.453.45-.545 1-.205 1.936 1.196.964-2.423-2.365-8.81-2.572-4.934-3.305-7.484-3.112-10.823.14-2.402-.414-5.664-1.229-7.25-1.226-2.384-1.251-3.025-.147-3.708.735-.454 1.713-.449 2.172.01 1.146 1.146 2.628 7.845 2.657 12.01.033 4.669 4.128 17.071 5.637 17.071.671 0 1.397.531 1.614 1.18.224.672 1.138.894 2.124.516 1.498-.575 1.702-1.973 1.517-10.43-.118-5.371-.652-10.486-1.187-11.365-1.261-2.071.028-7.592 1.442-6.178.581.581 1.036 7.028 1.07 15.144.032 7.773.339 14.126.682 14.118 1.961-.048 3.64-2.395 4.764-6.657 1.621-6.147 1.66-8.914.165-11.644-.657-1.201-1.322-5.559-1.478-9.684-.155-4.125-.801-9.412-1.434-11.75-1.123-4.142-1.259-4.25-5.349-4.25-4.149 0-4.192.037-3.8 3.25l.397 3.25-2.168-3.25c-2.16-3.238-4.309-4.132-5.459-2.271m21.71 8.202c.848 9.667 1.383 11.593 2.136 7.687.251-1.302.948-4.765 1.548-7.694C141.598 1.934 141.425 1 138.209 1h-2.791l.805 9.181m5.848-2.681c-3.347 17.188-3.837 21.852-2.602 24.75 1.016 2.386-.07 4.84-1.841 4.161-1.483-.569-1.921.318-3.133 6.339-.639 3.177.2 3.93 3.755 3.368 1.294-.204.817 3.411-.718 5.441-2.325 3.073-1.769 4.012.894 1.511 2.484-2.334 3.771-2.553 19.074-3.251 3.85-.175 7.325-.769 7.722-1.319.429-.594 1.366-.086 2.309 1.254 1.19 1.689 2.2 2.101 4.029 1.642 1.767-.444 2.44-.203 2.44.873 0 .817.712 2.077 1.581 2.798 1.277 1.06 1.969 1.071 3.592.057 1.697-1.06 2.225-.972 3.387.56 1.705 2.249 1.793 3.316.273 3.316-.641 0-.877.289-.524.643.354.353 1.323.078 2.154-.612 1.713-1.422 5.007-.6 4.017 1.002-.418.676.22.829 1.804.432 2.215-.556 2.581-.175 3.802 3.96.743 2.516 1.958 4.575 2.7 4.575.852 0 1.135.674.768 1.831-.771 2.428 2.671 6.404 4.826 5.577.891-.342 1.62-.955 1.62-1.361 0-1.589-3.201-7.047-4.132-7.047-.542 0-.707-.451-.366-1.003.933-1.51 4.433.702 5.484 3.467.49 1.288 1.368 2.637 1.952 2.998 1.992 1.231 1.144 5.438-1.438 7.13-3.196 2.094-3.186 3.408.025 3.408 1.773 0 2.808-.744 3.475-2.5 1.131-2.974 2.459-3.363 1.71-.5-.634 2.426.112 2.513 3.169.372 1.783-1.249 2.016-1.819 1.001-2.446-1.447-.895-.801-1.254 4.12-2.291 5.314-1.119 20.95-6.252 21.88-7.182.767-.766-7.876-14.123-14.307-22.112-17.495-21.732-44.212-37.875-72.551-43.836-10.857-2.284-10.72-2.33-11.951 3.995M126.158 7c0 1.375.227 1.938.504 1.25.278-.687.278-1.812 0-2.5-.277-.687-.504-.125-.504 1.25m-9.8 7.042c.369 1.845 1.447 4.502 2.395 5.906 1.692 2.506 1.729 2.513 2.046.37.346-2.344-2.041-7.731-3.948-8.91-.842-.52-.978.208-.493 2.634M104.81 31.5c-.265 2.271.01 3.5.784 3.5 1.771 0 2.545-2.872 1.367-5.072-1.417-2.649-1.68-2.457-2.151 1.572M95 33.917c0 1.228.646 2.083 1.573 2.083.932 0 1.442-.68 1.25-1.667C97.337 31.824 95 31.48 95 33.917m50 4.583c0 .917.484 1.505 1.075 1.308.591-.197 1.075-.785 1.075-1.308s-.484-1.111-1.075-1.308c-.591-.197-1.075.391-1.075 1.308m7.2.7c-1.855 1.855-1.433 2.8 1.25 2.8 1.348 0 2.864.738 3.369 1.64 1.058 1.892 3.181.998 3.181-1.339 0-3.313-5.429-5.472-7.8-3.101m-66.604 6.409c-.357.933-1.25 1.354-2.142 1.012-2.365-.908-2.927 2.177-.852 4.666 1.015 1.217 1.204 1.651.421.963-2.068-1.816-3.33-1.532-2.766.623.372 1.426.054 1.76-1.332 1.397-3.079-.805-2 4.927 1.217 6.469C82.88 62.052 89 60.782 89 58.902c0-.496.45-.902 1-.902s1 .645 1 1.433c0 .945 1.023 1.404 3 1.348 1.65-.047 3-.295 3-.55 0-.256-1.739-2.152-3.864-4.215-2.459-2.386-4.109-5.057-4.538-7.348-.765-4.076-2.092-5.429-3.002-3.059m20.434 1.841c-.022 2.151.269 2.651 1.074 1.846.791-.791.799-1.626.03-2.95-.941-1.618-1.077-1.482-1.104 1.104m-13.54 1.851c-.521 1.263.19 2.962 2.383 5.691 1.72 2.14 3.127 4.522 3.127 5.294 0 1.656 3.751 5.296 4.592 4.456.319-.319-.372-1.089-1.534-1.711-1.163-.622-1.84-1.575-1.505-2.117.335-.542-.724-3.107-2.354-5.7-1.63-2.593-3.189-5.389-3.465-6.214-.412-1.234-.633-1.181-1.244.301m-28.864.406c-.268.269-.259 1.087.022 1.818.358.933-.11 1.167-1.569.785-1.143-.299-2.079-.078-2.079.49 0 1.436 1.644 1.84 5.609 1.377 2.676-.312 3.391-.847 3.39-2.536 0-1.565-.658-2.179-2.442-2.282-1.343-.077-2.662.079-2.931.348m88.464 2.685c-1.446 1.742-.668 3.608 1.504 3.608 1.148 0 1.247.429.445 1.928-1.019 1.903-.477 5.072.868 5.072.381 0 1.233-.54 1.893-1.2 1.321-1.321 1.654-5.8.432-5.8-.423 0-1.469-1.154-2.325-2.564-1.359-2.241-1.715-2.372-2.817-1.044M168 54.5c0 .825.45 1.5 1 1.5s1-.675 1-1.5-.45-1.5-1-1.5-1 .675-1 1.5m-36.541.567c-.363.586-.445 1.281-.183 1.543s.743-.218 1.069-1.067c.676-1.762.1-2.072-.886-.476m-23.427 5.492c-.018.582.629 1.932 1.436 3 .808 1.067 1.483 1.465 1.5.882.018-.582-.629-1.932-1.436-3-.808-1.067-1.483-1.465-1.5-.882M237 73.607a6461.97 6461.97 0 00-7.777 3.477c-2.352 1.054-5.629 1.916-7.281 1.916-3.595 0-5.109 2.673-2.567 4.532.935.684 1.63 1.631 1.544 2.106-.519 2.87.15 3.231 3.441 1.856 1.848-.772 7.585-2.163 12.75-3.091 5.164-.928 9.507-1.778 9.65-1.888.706-.546-4.179-10.512-5.143-10.492-.614.012-2.692.725-4.617 1.584m-112.921.976c.048 1.165.285 1.402.604.605.289-.722.253-1.585-.079-1.917-.332-.332-.568.258-.525 1.312m-44.412 2.084c-.367.366-.667 1.131-.667 1.7 0 .626.466.567 1.183-.15.651-.651.951-1.416.667-1.7-.284-.284-.817-.217-1.183.15M202.5 78c-.34.55.057 1 .882 1s1.778-.45 2.118-1c.34-.55-.057-1-.882-1s-1.778.45-2.118 1M75.872 80.75c-1.243 1.586-1.208 1.621.378.378C77.916 79.821 78.445 79 77.622 79c-.207 0-.995.787-1.75 1.75m-29.141 1.33c.354 1.352.807 1.806 1.057 1.057.24-.722-.038-1.787-.62-2.369-.742-.742-.872-.351-.437 1.312M239.5 85.532c-8.746 1.94-13.996 3.828-13.814 4.968.552 3.461 6.975 2.929 10.798-.893 3.08-3.08 10.167-4.958 10.956-2.904.882 2.3.669 4.018-.307 2.478-.684-1.078-1.762-1.016-5.912.342-2.792.913-5.797 2.456-6.677 3.429-1.505 1.662-1.319 1.807 3.095 2.412 3.482.477 5.125.255 6.357-.86.914-.827 1.983-1.504 2.375-1.504 2.237 0 3.269-2.562 2.302-5.713-1.122-3.655-.845-3.602-9.173-1.755M208.5 88c-.34.55.057 1 .882 1s1.778-.45 2.118-1c.34-.55-.057-1-.882-1s-1.778.45-2.118 1m5.108 1.685c.154.652-.258 1.404-.914 1.671-.657.268-.208.522.997.565 1.205.043 2.469-.371 2.809-.921.34-.55-.046-1-.858-1-.811 0-1.664-.338-1.895-.75-.23-.412-.293-.217-.139.435m2.892 4.851c-2.407 1.102-2.593 1.383-.941 1.419 1.132.025 2.932-.616 4-1.423 2.408-1.822.924-1.82-3.059.004M235 99c-1.213.784-1.069.972.75.985 1.238.008 2.25-.435 2.25-.985 0-1.253-1.061-1.253-3 0m13 1.5c1.058 1.275.806 1.5-1.686 1.5-1.613 0-3.805.661-4.873 1.468-1.067.808-2.728 1.483-3.691 1.5-2.408.044-2.204 1.753.305 2.549 2.568.815 2.017 2.876-.883 3.303-2.728.401-2.868 2.18-.172 2.18 2.223 0 2.692 1.511.75 2.417-1 .466-1 .7 0 1.166 1.362.636 1.725 5.006.479 5.776-.887.548-.749 6.99.182 8.496.348.564-.597 1.149-2.144 1.327-2.019.232-2.856.948-3.097 2.65-.288 2.032.034 2.289 2.5 2 2.316-.272 2.889.088 3.158 1.98.288 2.037.706 2.232 3.5 1.633 4.461-.957 4.592-1.095 5.311-5.588.663-4.147 1.097-4.568 5.361-5.21 2.421-.364 2.491-.594 2.219-7.262-.641-15.698-2.913-23.385-6.913-23.385-1.265 0-1.322.276-.306 1.5m-218 6.726c0 .858.739 1.843 1.641 2.19 1.429.548 1.466.4.283-1.143a88.762 88.762 0 01-1.641-2.19c-.156-.229-.283.286-.283 1.143m188.813 11.457c.721.289 1.584.253 1.916-.079.332-.332-.258-.568-1.312-.525-1.165.048-1.402.285-.604.604m-6.14 2.589c1.848 1.044 1.983 1.488.901 2.962-.699.954-1.662 1.404-2.14 1-.477-.403-.324-.018.34.858.665.876.923 1.878.574 2.226-.349.349.105.919 1.009 1.265.904.347 1.643 1.483 1.643 2.524s.675 1.893 1.5 1.893 1.5-.45 1.5-1-.45-1-1-1c-2.516 0-.624-1.89 2.673-2.67 4.397-1.04 5.379-2.978 2.161-4.268-2.116-.848-2.147-.949-.334-1.08 1.587-.115 1.38-.409-1-1.424-1.65-.704-4.575-1.557-6.5-1.896-3.137-.553-3.275-.49-1.327.61M109 123.857c0 .509-1.094 1.201-2.431 1.536-1.476.371-2.556 1.462-2.75 2.78-.175 1.194-.994 2.38-1.819 2.636-.825.255-1.162.102-.748-.341.968-1.037-2.113-4.468-4.012-4.468-1.899 0-1.223 5.346 1.706 13.5 1.185 3.3 1.95 7.116 1.7 8.479-.263 1.426.3 3.55 1.324 5 .979 1.387 2.343 5.697 3.031 9.578 1.104 6.23 1.054 7.436-.423 10.293-.921 1.78-2.778 3.739-4.126 4.354-3.143 1.432-3.086 1.951.508 4.608 3.902 2.885 4.406 2.768 3.682-.853-.587-2.934.941-6.959 2.642-6.959.442 0 2.021-1.146 3.51-2.548 1.736-1.634 3.512-2.401 4.956-2.138 1.237.225 2.25-.054 2.25-.619 0-.566.279-.75.619-.409.759.758 3.381-1.734 3.381-3.215 0-.589-.675-1.071-1.5-1.071-1.806 0-1.912-2.219-.317-6.63 1.37-3.789-.167-8.697-2.451-7.821-.73.281-2.346-.574-3.591-1.899-2.719-2.894-3.024-8.183-.835-14.463 1.492-4.281 1.482-4.335-1.401-7.284-1.598-1.635-2.905-2.555-2.905-2.046m69.729 1.436c-7.132 2.5-12.729 6.85-12.729 9.894 0 3.071 2.855 1.917 4.911-1.985 1.384-2.628 6.333-4.969 6.902-3.264.194.584 1.329 1.064 2.52 1.067 2.01.005 1.956.174-.747 2.337-2.457 1.966-3.033 3.332-3.666 8.708-.65 5.506-.481 6.757 1.232 9.163 2.557 3.591 5.788 3.58 9.655-.033 3.663-3.421 5.529-9.521 4.264-13.933-.641-2.236-.542-3.441.344-4.177 1.486-1.232 5.434 2.621 7.868 7.68 1.471 3.058 1.455 3.25-.283 3.25-1.716 0-1.741.211-.356 2.987.819 1.643 1.206 3.446.86 4.007-.347.561.073 1.29.933 1.62 2.407.924 1.903 1.827-2.361 4.223-3.47 1.95-4.469 2.083-8.633 1.15-2.589-.58-4.882-.882-5.094-.67-.568.569 6.702 5.403 9.966 6.627 6.1 2.288 9.17 1.423 13.995-3.944 2.473-2.75 4.913-5 5.424-5 .51 0 1.388 1.012 1.951 2.25 5.022 11.05 8.211 16.75 9.37 16.75.52 0 .945 1.098.945 2.441 0 1.343.481 2.738 1.068 3.101.587.363.937 2.179.777 4.036-.16 1.857.264 3.931.942 4.609.977.977.763 1.484-1.027 2.447l-2.26 1.215 2.815 1.076c3.799 1.451 4.685 1.357 4.685-.497 0-1.121.777-1.479 2.712-1.25 2.263.269 3.091-.341 4.995-3.678 2.643-4.631 7.381-16.575 9.697-24.442l1.602-5.442-2.003 2.15c-1.102 1.183-2.003 2.564-2.003 3.07 0 .505-.681 1.484-1.512 2.174-1.076.893-1.213 1.616-.475 2.506.75.903.575 1.428-.628 1.89-1.867.716-6.738-2.026-5.928-3.337.287-.463-.149-1.398-.967-2.078-1.277-1.059-1.418-.79-.989 1.887.274 1.717.711 4.463.97 6.102.669 4.233-2.384 5.834-5.208 2.731-2.844-3.124-4.263-6.168-4.263-9.145 0-1.411-.48-2.566-1.067-2.566-.598 0-.8-.845-.459-1.919.423-1.332.061-2.061-1.182-2.384-1.435-.372-1.355-.488.399-.581 2.543-.135 3.84-1.67 2.244-2.656-.649-.401-.82-1.757-.417-3.319 1.428-5.55 1.107-9.125-.875-9.754-2.62-.832-4.9 2.718-2.643 4.113 1.809 1.118 1.043 2.648-1 2-1.147-.364-2-.18-2 .433 0 1.839-3.879 1.162-4.965-.867-.569-1.064-1.035-3.253-1.035-4.865s-.896-4.07-1.99-5.462c-1.095-1.391-2.138-3.498-2.319-4.682-.21-1.377-2.404-3.402-6.093-5.624-8.014-4.828-17.129-5.554-26.869-2.14M3.5 129c1.65.42 3.9.785 5 .811l2 .048-2-.859c-1.1-.473-3.35-.838-5-.811l-3 .048 3 .763m28.233.124c.679.684 1.486.991 1.793.683.308-.308-.247-.867-1.233-1.243-1.425-.542-1.54-.428-.56.56M222.5 131c-.34.55.335 1 1.5 1s1.84-.45 1.5-1c-.34-.55-1.015-1-1.5-1-.485 0-1.16.45-1.5 1M2.624 133.949c1.45 2.905 1.818 3.052 7.699 3.065 3.397.007 7.302.26 8.677.562l2.5.549-2.281-1.364c-1.255-.751-2.022-1.624-1.705-1.941.317-.317-2.482-1.121-6.219-1.787-3.737-.665-7.559-1.418-8.494-1.673-1.566-.426-1.58-.224-.177 2.589M66 135.515c0 .715 6.28 4.477 7.482 4.481.54.002-.673-1.121-2.697-2.496-3.672-2.496-4.785-2.957-4.785-1.985m148 .591c0 .492 1.012.9 2.25.908 1.238.007 3.375.299 4.75.647 1.375.349 2.262.368 1.971.041-.973-1.092-8.971-2.515-8.971-1.596M4.5 138.979c-1.451.639-.354.903 4 .962 3.3.044 7.8.301 10 .57 3.117.382 3.438.3 1.452-.37-4.203-1.418-13.313-2.103-15.452-1.162M166 139c0 .55.45 1 1 1s1-.45 1-1-.45-1-1-1-1 .45-1 1m-36.67.613c-.867.371-.775 1.659.354 4.974 1.22 3.58 2.253 4.779 5.17 6.005 3.176 1.333 3.418 1.66 1.876 2.53-.974.55-2.644.723-3.712.384-2.846-.904-5.99 1.182-7.603 5.042-1.811 4.335-1.849 4.122 1.09 6.047 1.763 1.156 2.874 1.337 3.75.613.685-.566 3.045-1.32 5.245-1.676 9.878-1.598 11.098-2.692 4.75-4.259l-3.75-.926 3.112-.723c1.897-.44 3.547-1.679 4.228-3.173.615-1.348.755-2.451.312-2.451s-.607-1.35-.365-3c.264-1.801-.005-3-.674-3-.612 0-1.113-.605-1.113-1.345s-.787-2.041-1.75-2.891c-1.832-1.618-8.907-3.012-10.92-2.151M3.5 142.922c-1.28.501 1.782 1.03 8.5 1.469 5.775.377 13.2.872 16.5 1.1 5.088.352 5.392.289 2-.414-13.79-2.859-23.265-3.615-27-2.155m-.808 6.754c.325 2.103.729 3.988.897 4.188.167.2 4.266-.364 9.108-1.252 4.842-.889 10.517-1.615 12.612-1.614 2.256.001 3.56-.401 3.198-.987-.341-.552.03-.742.84-.431.798.306 1.723.116 2.055-.422.367-.593-2.841-1.22-8.149-1.593-4.814-.338-11.543-.862-14.952-1.164l-6.199-.549.59 3.824M250.5 150c-3.15 3.288-1.733 4.233 1.5 1 1.718-1.718 2.68-4 1.687-4-.172 0-1.606 1.35-3.187 3m-239.75-1.338c.688.278 1.813.278 2.5 0 .688-.277.125-.504-1.25-.504s-1.937.227-1.25.504m.875 6.053c-4.647.893-7.361 1.83-6.621 2.287.689.426.957 1.252.597 1.835-1.163 1.881 1.484 10.055 3.458 10.682 1.011.321 2.104 1.421 2.429 2.444.325 1.023 2.573 3.485 4.995 5.47 3.956 3.241 4.818 3.543 8.461 2.96 3.385-.541 4.056-1.031 4.056-2.962 0-1.272-.486-2.614-1.081-2.981-.595-.368-.818-1.717-.496-2.998.321-1.281.125-2.613-.436-2.96-.561-.347-.788-1.004-.506-1.461 1.083-1.753-5.249-.333-8.345 1.872-1.788 1.273-3.457 2.109-3.709 1.858-.592-.593 9.869-7.543 13.34-8.863 1.981-.753 2.32-1.226 1.321-1.844-.739-.457-1.043-1.318-.675-1.913.678-1.097-2.92-2.461-5.529-2.097-.761.106-2.471.14-3.801.074-4.006-.196-1.532-1.326 4.628-2.115l5.789-.741-5-.03c-2.75-.017-8.544.651-12.875 1.483M40 164c0 .55.927 1 2.059 1 1.132 0 1.781-.45 1.441-1-.34-.55-1.266-1-2.059-1-.793 0-1.441.45-1.441 1m-1.493 4.989c-.35.566.051.734.941.393 1.732-.665 2.049-1.382.611-1.382-.518 0-1.216.445-1.552.989M68 173.77c-6.574.507-8 1.14-8 3.549 0 1.255.488 2.769 1.084 3.365 1.188 1.188 4.916.6 4.916-.776 0-.472 1.42-.574 3.155-.227 2.256.451 2.952.302 2.441-.525-.704-1.14.664-1.452 6.404-1.462 1.467-.002 1.777-.175.75-.418-.963-.229-1.75-.738-1.75-1.133 0-.394-.972-.791-2.16-.88-1.188-.09-2.426-.523-2.75-.963-.325-.44-2.165-.679-4.09-.53m140-.34c0 .275.9.981 2 1.57 1.1.589 2 .845 2 .57s-.9-.981-2-1.57c-1.1-.589-2-.845-2-.57m-125.187 4.253c.721.289 1.584.253 1.916-.079.332-.332-.258-.568-1.312-.525-1.165.048-1.402.285-.604.604M212.5 181c.34.55 1.379.993 2.309.985 1.457-.014 1.484-.15.191-.985-1.958-1.266-3.282-1.266-2.5 0m-80.145 3.024c.355 1.774.645 3.567.645 3.984 0 .417.901.994 2.001 1.282 1.36.356 1.762.153 1.254-.633-.411-.636-.749-2.497-.751-4.134-.003-2.122-.548-3.085-1.899-3.351-1.645-.325-1.81.052-1.25 2.852m-58.542-1.341c.721.289 1.584.253 1.916-.079.332-.332-.258-.568-1.312-.525-1.165.048-1.402.285-.604.604m143.187.594c0 .463-.52.52-1.155.128-.634-.393-.892-.291-.573.227.814 1.317 6.035.946 6.505-.463.238-.713-.609-1.078-2.195-.946-1.42.117-2.582.592-2.582 1.054m-67 2.701c0 1.666 4.808 5.033 6.345 4.443 1.937-.743 1.977-.951.656-3.42-.656-1.224-2.033-1.838-4-1.782-1.651.047-3.001.388-3.001.759m3 1.022c0 .55.477 1 1.059 1s.781-.45.441-1-.816-1-1.059-1-.441.45-.441 1m-10.108 9.058c1.315 1.096 2.632 1.751 2.927 1.457.637-.638-2.886-3.452-4.319-3.45-.55.001.076.898 1.392 1.993m86.492 1.549c-.92 3.666 1.527 5.09 3.881 2.258 1.35-1.625 1.498-2.446.628-3.494-1.791-2.158-3.795-1.609-4.509 1.236M147 199.893c0 .491.739 1.176 1.641 1.523 1.373.527 1.435.38.378-.893-1.44-1.735-2.019-1.916-2.019-.63" fill="#212121" fill-rule="evenodd"/></svg>